# xmcd CD database file
#
# Track frame offsets:
#	150
#	32968
#	81225
#	115223
#	141504
#	170216
#	212403
#	243002
#	277363
#
# Disc length: 3977 seconds
#
# Revision: 1
# Processed by: cddbd v1.5.2PL0 Copyright (c) Steve Scherf et al.
# Submitted via: CDex 1.91
#
DISCID=890f8709
DTITLE=The Edmund Velasco Quintet - The Blues In Me
DYEAR=1999
DGENRE=Jazz
TTITLE0=Turning Point
TTITLE1=The Blues In Me
TTITLE2=Not Even the Rain Has Such Small Hands
TTITLE3=The Underside
TTITLE4=Cuidado
TTITLE5=Remember When
TTITLE6=The Incredible Mr. T
TTITLE7=Still Here
TTITLE8=Hyped Up
EXTD=YEAR: 1999
EXTT0=
EXTT1=
EXTT2=
EXTT3=
EXTT4=
EXTT5=
EXTT6=
EXTT7=
EXTT8=
PLAYORDER=
